<?xml version="1.0" encoding="UTF-8"?><svg xmlns="http://www.w3.org/2000/svg" viewBox="0 0 86.18 46.79"><defs><style>.c{fill:#f6f6f6;}.d{fill:none;stroke:#f6f6f6;stroke-miterlimit:10;stroke-width:2.5px;}</style></defs><g id="a"><g><path class="c" d="M7.81,9.4h3.55V25.96c0,5.28,4.27,9.55,9.55,9.6v3.55c-7.25,0-13.1-5.9-13.1-13.15V9.4Z"/><path class="c" d="M45.98,27.74h3.6c-.86,6.43-6.38,11.38-13.01,11.38-7.25,0-13.15-5.9-13.15-13.15s5.9-13.1,13.15-13.1c6.62,0,12.15,4.94,13.01,11.33h-3.6c-.86-4.42-4.75-7.78-9.41-7.78-5.28,0-9.6,4.27-9.6,9.55s4.32,9.6,9.6,9.6c4.66,0,8.54-3.36,9.41-7.82Z"/><path class="c" d="M78.33,38.88h-3.55v-3.89c-2.4,2.54-5.81,4.13-9.55,4.13-7.25,0-13.15-5.9-13.15-13.15s5.9-13.1,13.15-13.1,13.1,5.86,13.1,13.1v12.91Zm-3.55-12.91c0-5.28-4.27-9.55-9.55-9.55s-9.6,4.27-9.6,9.55,4.32,9.6,9.6,9.6,9.55-4.32,9.55-9.6Z"/></g></g><g id="b"><path class="d" d="M1.25,6.89V1.25H7.23M1.25,39.56v5.98H6.89M84.93,7.23V1.25h-5.64m-.34,44.29h5.98v-5.64"/></g></svg>